# xmcd
#
# Track frame offsets:
#	150
#	9275
#	20312
#	30282
#	40485
#	51515
#	61780
#	72445
#	83007
#	95295
#	104477
#	115455
#	127237
#	137735
#	147792
#	160290
#	170147
#	180442
#	191287
#	203135
#	211447
#	220667
#	231715
#
# Disc length: 3224 seconds
#
# Revision: 0
# Processed by: cddbd v1.4PL0 Copyright (c) Steve Scherf et al.
# Submitted via: audiograbber 1.80
#
DISCID=4c0c9617
DTITLE=Jimmy C. NEWMAN - Bop-A-Hula cd-2
DYEAR=1900
DGENRE=
TTITLE0=Bop A Hula 
TTITLE1=Step Aside Shallow Water 
TTITLE2=Carry On 
TTITLE3=With Tears In My Eyes 
TTITLE4=Once Again 
TTITLE5=Blue Darlin' 
TTITLE6=Let Me Stay In Your Arms 
TTITLE7=I Thought I'd Never Fall In Love Again 
TTITLE8=Yesterday's Dreams 
TTITLE9=Let The Whole World Talk 
TTITLE10=Honky Tonk Tears 
TTITLE11=What Will I Do 
TTITLE12=Last Night 
TTITLE13=No Use To Cry 
TTITLE14=The Way That You're Living 
TTITLE15=What A Fool I Was To Fall (For You) 
TTITLE16=A Falling Star 
TTITLE17=I Can't Go On This Way 
TTITLE18=Need Me 
TTITLE19=A Sweet Kind Of Love 
TTITLE20=Cry Cry Darling 
TTITLE21=Your The Idol Of My Dreams 
TTITLE22=Need Me 
EXTD=
EXTT0=
EXTT1=
EXTT2=
EXTT3=
EXTT4=
EXTT5=
EXTT6=
EXTT7=
EXTT8=
EXTT9=
EXTT10=
EXTT11=
EXTT12=
EXTT13=
EXTT14=
EXTT15=
EXTT16=
EXTT17=
EXTT18=
EXTT19=
EXTT20=
EXTT21=
EXTT22=
PLAYORDER=
